<svg width="46" height="34" viewBox="0 0 46 34" fill="none" xmlns="http://www.w3.org/2000/svg">
<path d="M20.3462 3.53846V23C20.343 25.8144 19.2235 28.5126 17.2335 30.5027C15.2434 32.4928 12.5452 33.6122 9.73077 33.6154C9.26154 33.6154 8.81153 33.429 8.47973 33.0972C8.14794 32.7654 7.96154 32.3154 7.96154 31.8462C7.96154 31.3769 8.14794 30.9269 8.47973 30.5951C8.81153 30.2633 9.26154 30.0769 9.73077 30.0769C11.607 30.0748 13.4059 29.3285 14.7326 28.0018C16.0593 26.6751 16.8056 24.8763 16.8077 23V21.2308H3.53846C2.60033 21.2297 1.70093 20.8566 1.03758 20.1932C0.374219 19.5298 0.0010729 18.6304 0 17.6923V3.53846C0.0010729 2.60033 0.374219 1.70093 1.03758 1.03758C1.70093 0.374219 2.60033 0.0010729 3.53846 0H16.8077C17.7458 0.0010729 18.6452 0.374219 19.3086 1.03758C19.9719 1.70093 20.3451 2.60033 20.3462 3.53846ZM42.4615 0H29.1923C28.2542 0.0010729 27.3548 0.374219 26.6914 1.03758C26.0281 1.70093 25.6549 2.60033 25.6538 3.53846V17.6923C25.6549 18.6304 26.0281 19.5298 26.6914 20.1932C27.3548 20.8566 28.2542 21.2297 29.1923 21.2308H42.4615V23C42.4594 24.8763 41.7132 26.6751 40.3864 28.0018C39.0597 29.3285 37.2609 30.0748 35.3846 30.0769C34.9154 30.0769 34.4654 30.2633 34.1336 30.5951C33.8018 30.9269 33.6154 31.3769 33.6154 31.8462C33.6154 32.3154 33.8018 32.7654 34.1336 33.0972C34.4654 33.429 34.9154 33.6154 35.3846 33.6154C38.199 33.6122 40.8972 32.4928 42.8873 30.5027C44.8774 28.5126 45.9968 25.8144 46 23V3.53846C45.9989 2.60033 45.6258 1.70093 44.9624 1.03758C44.2991 0.374219 43.3997 0.0010729 42.4615 0Z" fill="#8CBA17"/>
</svg>
